<svg width="16" height="16" viewBox="0 0 16 16" fill="none" xmlns="http://www.w3.org/2000/svg">
<path d="M16 8C16 12.4173 12.4201 16 8 16C5.23813 16 2.80347 14.6024 1.36707 12.4728C0.504679 11.1972 0 9.65823 0 8C0 3.58267 3.5799 0 8 0C12.4201 0 16 3.58267 16 8Z" fill="#FC355D"/>
<path d="M10.4697 4.46979C10.7626 4.17689 11.2374 4.17689 11.5303 4.46979C11.8231 4.76269 11.8231 5.23746 11.5303 5.53033L9.06055 8.00006L11.5303 10.4698C11.8231 10.7627 11.8231 11.2375 11.5303 11.5303C11.2374 11.8232 10.7626 11.8232 10.4697 11.5303L8 9.06061L5.53027 11.5303C5.2374 11.8232 4.76262 11.8232 4.46973 11.5303C4.17683 11.2374 4.17683 10.7627 4.46973 10.4698L6.93945 8.00006L4.46973 5.53033C4.17683 5.23744 4.17683 4.76268 4.46973 4.46979C4.76262 4.17689 5.23738 4.17689 5.53027 4.46979L8 6.93951L10.4697 4.46979Z" fill="white"/>
</svg>
