<svg width="16" height="16" viewBox="0 0 16 16" fill="none" xmlns="http://www.w3.org/2000/svg">
<path d="M7.26402 1.72109V0.5L4.5 2.50076L7.26402 4.41794V3.00748H7.91585C8.94849 3.0074 9.95838 3.30835 10.8199 3.87291C11.6815 4.43748 12.3568 5.24075 12.7617 6.18286C13.1666 7.12496 13.2834 8.16433 13.0976 9.17174C12.9117 10.1791 12.4313 11.1101 11.7162 11.849L12.8981 12.5C13.9334 11.3151 14.5023 9.79925 14.5 8.2314C14.5 4.62494 11.5523 1.7015 7.91585 1.7015C7.67882 1.7015 7.46352 1.70803 7.26402 1.72109Z" fill="black"/>
<path d="M8.73598 14.2789V15.5L11.5 13.4992L8.73598 11.5821V12.9925H8.08415C7.05151 12.9926 6.04162 12.6917 5.18005 12.1271C4.31849 11.5625 3.64325 10.7592 3.2383 9.81714C2.83335 8.87504 2.71656 7.83567 2.90244 6.82826C3.08832 5.82086 3.56868 4.88986 4.28378 4.15103L3.10193 3.5C2.06663 4.68486 1.49774 6.20075 1.50001 7.7686C1.50001 11.3751 4.44773 14.2985 8.08415 14.2985C8.32118 14.2985 8.53648 14.292 8.73598 14.2789Z" fill="black"/>
</svg>
