<svg width="20" height="20" viewBox="0 0 20 20" fill="none" xmlns="http://www.w3.org/2000/svg">
<path d="M8.90022 4.09525L8.01246 3.18232C7.71469 2.87612 7.71462 2.38856 8.01231 2.08227C8.3222 1.76342 8.83421 1.76345 9.14407 2.08234L11.539 4.54708C11.7275 4.74112 11.7275 5.04992 11.539 5.24396L9.14407 7.7087C8.83421 8.02758 8.3222 8.02761 8.01231 7.70876C7.71462 7.40247 7.71469 6.91492 8.01246 6.60871L8.90022 5.69578H6.88889C6.27005 5.69578 5.67656 5.94872 5.23897 6.39896C4.80139 6.84919 4.55556 7.45984 4.55556 8.09657V10.5198C4.55556 10.9494 4.20733 11.2976 3.77778 11.2976C3.34822 11.2976 3 10.9494 3 10.5198V8.09657C3 7.03536 3.40972 6.01761 4.13903 5.26721C4.86834 4.51682 5.85749 4.09525 6.88889 4.09525H8.90022ZM7.66667 9.6971C7.66667 9.48486 7.74861 9.28131 7.89447 9.13123C8.04033 8.98115 8.23816 8.89684 8.44444 8.89684H16.2222C16.4285 8.89684 16.6263 8.98115 16.7722 9.13123C16.9181 9.28131 17 9.48486 17 9.6971V17.6997C17 17.912 16.9181 18.1155 16.7722 18.2656C16.6263 18.4157 16.4285 18.5 16.2222 18.5H8.44444C8.23816 18.5 8.04033 18.4157 7.89447 18.2656C7.74861 18.1155 7.66667 17.912 7.66667 17.6997V9.6971ZM9.22222 10.4974V16.8995H15.4444V10.4974H9.22222Z" fill="black"/>
</svg>
